<svg xmlns="http://www.w3.org/2000/svg" width="256" height="256" viewBox="155 150 720 720">
<path class="cloud" d="M430.5,199 C452.966,197.543 477.493,201.289 498.5,209 C498.5,209 481.5,240 481.5,240 C398.274,210.793 308.787,282.018 327,370.5 C292.426,371.94 260.633,377.282 233.5,400 C186.621,439.25 177.89,510.511 213,560.5 C263.52,632.43 356.975,602.939 431.5,609 C432.441,609.828 432.918,610.124 433,611.5 C433.1,613.189 418.882,637.56 416.5,641 C348.387,637.769 276.395,654.476 218.5,610 C111.927,528.129 160.716,360.113 291,342.5 C291.655,267.943 357.045,203.765 430.5,199 Z " fill="rgb(253,254,254)"/>
<path d="M535.5,214 C535.5,214 666,215.5 666,215.5 C666,215.5 525,474.5 525,474.5 C525,474.5 664,477.5 664,477.5 C664,477.5 355.5,821 355.5,821 C355.5,821 497,546.5 497,546.5 C497,546.5 354,545.5 354,545.5 C354,545.5 535.5,214 535.5,214 Z " fill="rgb(210,161,53)"/>
<path class="cloud" d="M690.5,244 C715.573,270.014 728.738,306.696 731,342.5 C847.017,357.919 903.641,498.201 826,588.5 C759.112,666.293 652.687,634.313 562.5,641 C562.5,641 561.5,639 561.5,639 C561.5,639 591.5,609 591.5,609 C660.46,603.006 744.451,629.161 798,573.5 C848.248,521.27 838.192,431.625 777.5,392 C751.442,374.987 724.501,371.931 694,370.5 C699.648,348.869 696.204,324.026 688,303.5 C685.775,297.933 672.155,278.062 672,276.5 C671.693,273.405 687.659,248.448 690.5,244 Z " fill="rgb(253,254,254)"/>
<path class="cloud" d="M286.5,397 C297.863,395.907 308.619,401.329 303,414.5 C299.99,421.556 284.219,422.076 277.5,425 C264.387,430.706 247.706,446.351 242,459.5 C237.058,470.888 238.334,504.609 218.5,496 C202.558,489.081 219.192,449.134 226,438.5 C236.819,421.601 266.389,398.934 286.5,397 Z " fill="rgb(253,254,254)"/>
<style>
@media (prefers-color-scheme: light) {
  .cloud {
    fill: black;
    stroke: black;
  }
}
@media (prefers-color-scheme: no-preference) {
  .cloud {
    fill: black;
    stroke: black;
  }
}
</style>
</svg>
