<?xml version="1.0" standalone="no"?>
<!DOCTYPE svg PUBLIC "-//W3C//DTD SVG 20010904//EN"
 "http://www.w3.org/TR/2001/REC-SVG-20010904/DTD/svg10.dtd">
<svg version="1.0" xmlns="http://www.w3.org/2000/svg"
 width="200px" height="200px" viewBox="0 0 360 360"
 preserveAspectRatio="xMidYMid meet" fill="currentColor">

<g transform="translate(-75,440) scale(0.100000,-0.100000)">
<path d="M2125 4279 c-166 -18 -361 -91 -481 -183 -223 -168 -370 -433 -382
-689 l-5 -108 -91 -43 c-119 -56 -201 -118 -261 -197 -97 -129 -130 -236 -129
-424 0 -113 4 -140 27 -210 69 -207 242 -363 473 -427 76 -21 101 -22 617 -26
l537 -4 0 66 0 66 -522 0 c-582 0 -593 1 -726 67 -128 63 -227 181 -268 318
-26 86 -24 239 4 331 37 122 125 234 235 298 25 15 82 40 126 56 43 15 84 31
90 34 7 5 11 49 11 119 0 195 52 349 171 507 108 143 251 240 434 296 80 24
107 27 240 28 171 1 248 -15 378 -80 199 -100 373 -284 456 -484 39 -95 79
-105 142 -36 118 130 302 140 433 25 76 -67 126 -173 141 -298 8 -70 19 -82
95 -101 127 -32 247 -96 326 -175 l45 -45 45 36 c24 20 44 40 44 44 0 5 -31
37 -70 73 -74 68 -208 144 -305 172 -46 14 -56 21 -61 43 -15 71 -38 142 -61
189 -28 61 -107 151 -167 192 -136 93 -323 98 -459 11 -26 -16 -49 -30 -51
-30 -2 0 -24 35 -49 78 -130 222 -362 407 -599 476 -74 21 -251 49 -290 45 -7
-1 -49 -5 -93 -10z"/>
<path d="M3064 2957 c-221 -89 -409 -168 -418 -176 -14 -12 -16 -64 -16 -536
0 -579 3 -619 64 -797 48 -142 107 -239 201 -333 170 -169 355 -233 642 -222
98 3 159 11 213 27 303 87 488 303 576 675 14 60 18 151 21 617 4 526 4 547
-15 566 -22 22 -817 342 -847 341 -11 0 -201 -73 -421 -162z m786 -109 c195
-77 361 -146 368 -151 11 -9 13 -102 10 -496 -4 -413 -7 -499 -22 -570 -67
-323 -240 -527 -506 -598 -83 -22 -329 -25 -410 -4 -79 20 -195 75 -257 123
-108 83 -201 240 -250 423 l-27 100 -4 506 c-3 409 -1 508 10 516 14 12 706
292 723 293 6 0 170 -64 365 -142z"/>
<path d="M3225 2669 c-137 -56 -256 -105 -262 -111 -21 -17 -18 -884 2 -962
23 -89 65 -165 127 -232 101 -108 221 -154 403 -154 167 0 289 44 385 140 67
67 104 134 130 236 18 71 20 112 20 516 0 423 -1 439 -20 455 -21 18 -496 212
-520 212 -8 0 -127 -45 -265 -100z m203 -690 c1 -343 0 -629 -2 -636 -6 -15
-95 5 -155 36 -90 47 -167 155 -191 268 -6 29 -9 199 -8 438 l3 390 165 67
c91 37 170 66 175 64 6 -2 11 -222 13 -627z m307 563 l170 -68 3 -375 c3 -408
-2 -471 -47 -566 -49 -103 -161 -183 -261 -186 l-45 -2 -3 620 c-2 558 -1 645
11 645 1 0 79 -31 172 -68z"/>
</g>
</svg>
