<svg xmlns="http://www.w3.org/2000/svg"
     width="512px"
     height="512px"
     viewBox="0 0 133 133"
     preserveAspectRatio="xMidYMid meet"
	 stroke="currentColor"
	 fill="currentColor"
     class="svg-icon">
	 <g transform="scale(1.3)">
  <path d="M62.461,108.823l-3.6-1.861a60.191,60.191,0,0,0,4.593-11.452l3.885,1.133A64.6,64.6,0,0,1,62.461,108.823Zm3.763-37.045A64.481,64.481,0,0,0,55.561,40.054l3.379-2.205A68.405,68.405,0,0,1,70.27,71.535ZM39.537,22.957a60.859,60.859,0,0,0-9.347-5.746l1.841-3.6a64.621,64.621,0,0,1,9.954,6.07Z" transform="translate(5.601 -11.369)"/>
  <path d="M54.43,54.007a60.515,60.515,0,0,0-22.6-14.163L33.084,36A64.561,64.561,0,0,1,57.161,51.073Z" transform="translate(7.279 11.541)" />
  <path d="M52.519,60.667A59.13,59.13,0,0,0,49.99,54.9l3.622-1.8A66.18,66.18,0,0,1,56.3,59.17Z" transform="translate(25.861 29.038)" />
  <path d="M46.225,66.737,44.93,62.913A45.321,45.321,0,0,0,58.344,55.69l2.489,3.2a49.286,49.286,0,0,1-14.608,7.85Z" transform="translate(20.684 31.688)" />
  <path d="M14.251,39.9l-.931-3.925a63.227,63.227,0,0,1,13.7-1.8l.1,4.046A59.483,59.483,0,0,0,14.251,39.9Z" transform="translate(-11.661 9.668)" />
  <path d="M31.9,38.3,28.5,36.1A58.006,58.006,0,0,1,39.365,23.15l2.671,3.055A53.9,53.9,0,0,0,31.9,38.3Z" transform="translate(3.872 -1.608)" />
  <path d="M45.746,22.054l-1.376-3.8a60.232,60.232,0,0,1,9.368-2.671l.749,4.046A54.425,54.425,0,0,0,45.746,22.054Z" transform="translate(20.111 -9.354)" />
  <path d="M27.88,77.214a63.793,63.793,0,0,1-5.2-24.279,43.944,43.944,0,0,1,1.254-9.55c.142-.708.3-1.436.445-2.185l4.046.789c-.142.769-.3,1.5-.445,2.226a40.465,40.465,0,0,0-1.173,8.72,59.807,59.807,0,0,0,4.815,22.822Z" transform="translate(-2.083 16.862)" />
  <path d="M63.081,113.659A50.581,50.581,0,0,1,12.5,63.078c0-1.032,0-2.023.1-3.055a50.576,50.576,0,1,1,50.48,53.636Zm0-97.115a45.644,45.644,0,0,0-13.293,2.023A46.534,46.534,0,0,0,16.648,60.306c0,.951-.1,1.861-.1,2.772a46.534,46.534,0,0,0,46.534,46.534A45.746,45.746,0,0,0,78.093,107.1a45.159,45.159,0,0,0,13.434-7.223A46.534,46.534,0,0,0,63.081,16.544Z" transform="translate(-12.5 -12.503)" />
  <path d="M44.463,35A8.943,8.943,0,1,1,50.8,32.384,8.963,8.963,0,0,1,44.463,35Zm0-13.859a4.916,4.916,0,1,0,4.916,4.916A4.916,4.916,0,0,0,44.463,21.137Z" transform="translate(11.034 -7.829)" />
  <path d="M30.823,48.946a8.963,8.963,0,1,1,8.963-8.963,8.963,8.963,0,0,1-8.963,8.963Zm0-13.879a2.04,2.04,0,1,0,0-.04Z" transform="translate(-2.923 6.445)" />
  <path d="M52.823,61.766a8.963,8.963,0,1,1,8.943-8.943,8.963,8.963,0,0,1-8.943,8.943Zm0-13.859a4.916,4.916,0,1,0,4.9,4.916,4.916,4.916,0,0,0-4.9-4.916Z" transform="translate(19.568 19.563)" />
  </g>
</svg>
