<?xml version="1.0" standalone="no"?>
<!DOCTYPE svg PUBLIC "-//W3C//DTD SVG 20010904//EN"
 "http://www.w3.org/TR/2001/REC-SVG-20010904/DTD/svg10.dtd">
<svg version="1.0" xmlns="http://www.w3.org/2000/svg"
 width="265.000000pt" height="265.000000pt" viewBox="0 0 265.000000 265.000000"
 preserveAspectRatio="xMidYMid meet">

<g transform="translate(0.000000,265.000000) scale(0.100000,-0.100000)">
<path d="M1071 2556 c-7 -8 -10 -46 -9 -102 l3 -88 -50 -19 c-27 -10 -85 -34
-129 -55 l-78 -36 -63 67 c-34 37 -71 67 -81 67 -20 0 -354 -339 -367 -372 -6
-16 7 -34 60 -89 l66 -69 -35 -77 c-20 -43 -42 -96 -48 -118 -21 -66 -25 -68
-115 -62 -45 3 -87 2 -95 -3 -12 -8 -16 -54 -18 -264 -4 -310 -9 -297 115
-289 91 6 91 7 121 -84 12 -34 34 -87 49 -118 l28 -56 -58 -56 c-67 -65 -77
-81 -67 -108 5 -11 87 -98 183 -194 138 -137 178 -172 194 -167 11 3 42 33 69
66 27 33 55 60 62 60 7 0 43 -15 80 -33 37 -18 87 -39 112 -47 70 -21 70 -22
64 -117 -3 -57 -1 -89 7 -99 17 -21 511 -21 529 1 8 10 11 43 9 102 l-4 87 40
14 c22 8 80 33 129 55 l88 41 63 -67 c64 -67 71 -72 98 -61 25 9 357 363 357
380 0 9 -30 44 -66 78 l-67 62 31 65 c17 35 39 89 49 119 29 86 25 84 119 76
68 -5 85 -3 98 10 24 23 24 515 1 538 -13 12 -31 14 -95 9 -82 -6 -110 2 -110
34 0 8 -20 62 -45 121 l-46 107 66 63 c36 34 65 69 65 78 0 13 -283 321 -333
362 -38 32 -59 24 -123 -45 l-62 -67 -79 36 c-43 21 -100 45 -128 55 l-50 19
4 87 c2 59 -1 92 -9 102 -18 21 -511 22 -529 1z m449 -165 l5 -93 97 -33 c54
-18 134 -53 178 -77 l81 -43 59 63 c33 34 63 62 67 62 12 0 253 -243 253 -255
0 -6 -25 -35 -55 -65 -30 -30 -55 -62 -55 -71 0 -9 22 -63 49 -120 28 -57 55
-126 62 -154 6 -27 18 -61 26 -74 14 -22 20 -23 96 -20 l82 4 3 -179 c1 -103
-2 -184 -7 -189 -5 -5 -47 -10 -92 -11 l-83 -1 -22 -78 c-12 -42 -42 -120 -68
-173 -25 -53 -46 -104 -46 -114 0 -10 25 -41 55 -68 30 -28 55 -54 55 -57 0
-12 -243 -265 -254 -265 -6 0 -31 25 -56 55 -25 30 -53 57 -62 60 -9 3 -53
-14 -100 -39 -46 -24 -114 -54 -153 -66 -126 -39 -115 -27 -115 -129 0 -62 -4
-90 -12 -93 -7 -2 -89 -4 -183 -3 l-170 0 -1 81 c0 44 -3 87 -6 96 -4 9 -44
27 -95 42 -48 15 -125 48 -171 72 -50 27 -90 42 -100 39 -9 -3 -37 -30 -62
-60 -25 -30 -50 -55 -56 -55 -15 0 -254 247 -254 263 0 7 25 34 55 60 31 27
55 57 55 68 0 10 -20 58 -44 106 -24 49 -54 122 -66 163 -13 41 -28 81 -33 88
-8 10 -33 13 -91 10 l-81 -3 0 190 0 190 81 -3 c58 -3 83 0 91 10 6 7 21 47
33 88 12 41 42 114 66 163 24 48 44 95 44 105 0 10 -25 42 -55 72 -30 30 -55
58 -55 62 0 12 242 258 254 258 6 0 30 -22 54 -50 66 -76 66 -76 173 -21 52
27 128 59 169 71 41 12 80 28 85 35 6 7 8 44 5 89 -3 44 -1 81 5 87 5 5 80 8
185 7 l175 -3 5 -94z"/>
<path d="M1205 2066 c-66 -29 -185 -81 -265 -115 -80 -35 -151 -68 -157 -73
-20 -16 -18 -713 2 -809 47 -223 146 -371 297 -442 192 -91 425 -72 589 49 99
72 186 232 215 394 19 104 20 793 1 808 -15 12 -543 242 -554 241 -4 0 -62
-24 -128 -53z m368 -142 c122 -53 228 -101 235 -107 11 -9 13 -76 9 -356 -3
-190 -8 -359 -10 -376 -9 -56 -59 -180 -94 -232 -47 -71 -103 -119 -182 -157
-63 -30 -71 -31 -196 -31 -126 0 -132 1 -198 32 -113 54 -210 171 -252 305
-26 85 -35 204 -35 500 0 283 1 309 18 319 37 22 448 198 465 199 10 0 118
-43 240 -96z"/>
<path d="M1229 1883 c-57 -24 -123 -53 -147 -63 -23 -11 -43 -19 -45 -18 -1 1
-21 -9 -44 -21 l-42 -21 -3 -302 c-2 -198 1 -325 9 -371 15 -88 59 -179 115
-236 40 -40 118 -90 118 -75 0 4 7 0 17 -7 11 -10 48 -14 127 -14 99 0 117 3
167 26 77 37 135 97 175 184 47 101 54 166 54 497 0 287 0 288 -22 302 -20 12
-290 132 -353 156 -15 6 -50 -4 -126 -37z m59 -557 c2 -407 0 -477 -12 -482
-21 -8 -96 27 -139 65 -42 38 -83 119 -98 193 -12 63 -14 587 -2 598 4 4 53
27 108 51 55 23 104 46 110 51 28 24 30 -10 33 -476z m305 395 l48 -21 -3
-307 c-3 -292 -5 -311 -26 -364 -31 -77 -89 -141 -153 -168 -28 -12 -57 -20
-65 -17 -12 5 -14 82 -14 479 0 261 3 476 6 480 5 5 38 -8 207 -82z"/>
</g>
</svg>
