<?xml version="1.0" standalone="no"?>
<!DOCTYPE svg PUBLIC "-//W3C//DTD SVG 20010904//EN"
 "http://www.w3.org/TR/2001/REC-SVG-20010904/DTD/svg10.dtd">
<svg version="1.0" xmlns="http://www.w3.org/2000/svg"
 width="440.000000pt" height="440.000000pt" viewBox="0 0 440.000000 440.000000"
 preserveAspectRatio="xMidYMid meet">

<g transform="translate(0.000000,440.000000) scale(0.100000,-0.100000)">
<path d="M329 3934 l-24 -26 -3 -1708 c-2 -1617 -1 -1709 15 -1729 l18 -22
1330 1 c731 0 1333 4 1338 9 4 4 7 35 5 67 l-3 59 -1280 5 -1280 5 -3 1378 -2
1377 1755 0 1755 0 0 -1380 0 -1380 -167 -2 -168 -3 0 -65 0 -65 211 -3 210
-2 25 26 24 26 0 1703 0 1703 -24 26 -24 26 -1842 0 -1842 0 -24 -26z m3621
-279 l0 -165 -1755 0 -1755 0 0 165 0 165 1755 0 1755 0 0 -165z"/>
<path d="M2153 3128 c-12 -13 -66 -114 -122 -225 -56 -112 -104 -203 -109
-203 -52 -1 -467 -71 -478 -81 -39 -32 -31 -89 18 -123 12 -8 89 -82 171 -163
l149 -148 -46 -215 c-25 -119 -46 -227 -46 -241 0 -31 31 -62 63 -62 12 0 112
55 221 123 110 67 205 124 212 127 8 3 106 -52 218 -121 113 -70 215 -126 228
-126 14 0 35 11 48 25 l24 25 -48 228 c-25 125 -46 231 -46 235 0 4 81 87 180
184 178 174 192 192 170 232 -15 29 -52 38 -285 71 -121 18 -221 32 -221 33
-1 1 -45 92 -98 202 -53 109 -106 210 -118 222 -27 29 -59 29 -85 1z m131
-379 c53 -109 85 -163 99 -170 12 -5 98 -20 190 -33 93 -14 171 -27 174 -30 3
-3 -56 -65 -131 -137 -75 -73 -141 -140 -146 -149 -7 -12 2 -69 25 -180 20
-90 33 -165 31 -167 -2 -2 -74 39 -159 91 -86 53 -163 96 -173 96 -9 0 -87
-43 -172 -96 -85 -52 -156 -93 -159 -90 -2 2 10 71 28 153 18 81 32 159 32
173 -1 19 -38 60 -145 162 -78 75 -140 139 -136 143 3 4 84 18 180 32 130 18
178 29 193 43 11 10 54 87 95 169 41 83 79 151 85 151 6 0 46 -72 89 -161z"/>
<path d="M1121 1386 c-7 -8 -11 -37 -9 -68 l3 -53 200 0 200 0 0 65 0 65 -191
3 c-157 2 -193 0 -203 -12z"/>
<path d="M1794 1386 c-3 -7 -4 -38 -2 -67 l3 -54 740 0 740 0 3 53 c2 31 -2
60 -9 68 -17 21 -1467 21 -1475 0z"/>
<path d="M1114 1047 c-3 -8 -4 -39 -2 -68 l3 -54 200 0 200 0 0 65 0 65 -198
3 c-161 2 -198 0 -203 -11z"/>
<path d="M1794 1046 c-3 -7 -4 -38 -2 -67 l3 -54 470 0 470 0 0 65 0 65 -468
3 c-390 2 -468 0 -473 -12z"/>
</g>
</svg>
