<?xml version="1.0" standalone="no"?>
<!DOCTYPE svg PUBLIC "-//W3C//DTD SVG 20010904//EN"
 "http://www.w3.org/TR/2001/REC-SVG-20010904/DTD/svg10.dtd">
<svg version="1.0" xmlns="http://www.w3.org/2000/svg"
 width="200px" height="200px" viewBox="0 0 280 280"
 preserveAspectRatio="xMidYMid meet" fill="currentColor">

<g transform="translate(-15,300) scale(0.105,-0.105)">
<path d="M1273 2800 c-179 -18 -340 -69 -428 -136 -19 -14 -46 -49 -60 -78
l-25 -52 2 -810 3 -809 27 -46 c32 -54 79 -89 174 -129 277 -115 842 -97 1095
36 79 42 123 87 138 141 15 52 15 1584 0 1636 -5 21 -23 53 -39 71 -62 70
-244 140 -430 165 -113 15 -353 21 -457 11z m530 -120 c185 -39 307 -107 307
-170 0 -63 -122 -131 -307 -170 -139 -30 -438 -38 -583 -16 -247 38 -386 122
-354 213 22 65 160 129 339 158 134 22 467 14 598 -15z m-786 -409 c112 -38
245 -54 438 -54 251 -1 459 34 585 98 28 14 55 23 60 20 6 -4 10 -88 10 -204
l0 -197 -32 -31 c-95 -90 -325 -143 -621 -143 -278 0 -507 58 -576 146 -20 25
-21 40 -21 224 0 108 3 199 6 202 3 3 24 -5 47 -17 23 -13 70 -33 104 -44z m0
-550 c112 -38 245 -54 438 -54 251 -1 459 34 585 98 28 14 55 23 60 20 6 -4
10 -79 10 -179 l0 -172 -32 -31 c-95 -90 -325 -143 -621 -143 -278 0 -507 58
-576 146 -19 25 -21 40 -21 199 0 94 3 174 6 177 3 3 24 -5 47 -17 23 -13 70
-33 104 -44z m0 -500 c112 -38 245 -54 438 -54 251 -1 459 34 585 98 28 14 55
23 60 20 6 -4 10 -79 10 -179 l0 -172 -32 -31 c-93 -90 -322 -143 -613 -143
-292 0 -505 52 -581 143 -23 28 -24 33 -24 201 0 95 3 175 6 178 3 3 24 -5 47
-17 23 -13 70 -33 104 -44z"/>
<path d="M760 410 l0 -150 50 0 50 0 0 150 0 150 -50 0 -50 0 0 -150z"/>
<path d="M2110 410 l0 -150 50 0 50 0 0 150 0 150 -50 0 -50 0 0 -150z"/>
<path d="M1210 340 l0 -170 50 0 50 0 0 170 0 170 -50 0 -50 0 0 -170z"/>
<path d="M1660 335 l0 -175 50 0 50 0 0 175 0 175 -50 0 -50 0 0 -175z"/>
</g>
</svg>
